<mxfile host="65bd71144e">
    <diagram id="C5RBs43oDa-KdzZeNtuy" name="Page-1">
        <mxGraphModel dx="525" dy="362" grid="1" gridSize="10" guides="1" tooltips="1" connect="0" arrows="1" fold="1" page="1" pageScale="1" pageWidth="827" pageHeight="1169" background="none" math="0" shadow="1">
            <root>
                <mxCell id="WIyWlLk6GJQsqaUBKTNV-0"/>
                <mxCell id="WIyWlLk6GJQsqaUBKTNV-1" parent="WIyWlLk6GJQsqaUBKTNV-0"/>
                <mxCell id="xrH32smRr7bvcVvDlyT8-16" style="edgeStyle=orthogonalEdgeStyle;rounded=0;orthogonalLoop=1;jettySize=auto;html=1;exitX=0.25;exitY=1;exitDx=0;exitDy=0;" parent="WIyWlLk6GJQsqaUBKTNV-1" source="zkfFHV4jXpPFQw0GAbJ--0" target="zkfFHV4jXpPFQw0GAbJ--6" edge="1">
                    <mxGeometry relative="1" as="geometry">
                        <mxPoint x="60" y="430" as="targetPoint"/>
                        <Array as="points">
                            <mxPoint x="60" y="160"/>
                        </Array>
                    </mxGeometry>
                </mxCell>
                <mxCell id="xrH32smRr7bvcVvDlyT8-36" style="edgeStyle=orthogonalEdgeStyle;rounded=0;orthogonalLoop=1;jettySize=auto;html=1;exitX=0.5;exitY=1;exitDx=0;exitDy=0;" parent="WIyWlLk6GJQsqaUBKTNV-1" source="zkfFHV4jXpPFQw0GAbJ--0" target="xrH32smRr7bvcVvDlyT8-17" edge="1">
                    <mxGeometry relative="1" as="geometry">
                        <Array as="points">
                            <mxPoint x="400" y="160"/>
                        </Array>
                    </mxGeometry>
                </mxCell>
                <mxCell id="xrH32smRr7bvcVvDlyT8-37" style="edgeStyle=orthogonalEdgeStyle;rounded=0;orthogonalLoop=1;jettySize=auto;html=1;exitX=1;exitY=1;exitDx=0;exitDy=0;entryX=0.55;entryY=-0.008;entryDx=0;entryDy=0;entryPerimeter=0;" parent="WIyWlLk6GJQsqaUBKTNV-1" source="zkfFHV4jXpPFQw0GAbJ--0" target="xrH32smRr7bvcVvDlyT8-25" edge="1">
                    <mxGeometry relative="1" as="geometry">
                        <mxPoint x="710" y="490" as="targetPoint"/>
                        <Array as="points">
                            <mxPoint x="710" y="160"/>
                        </Array>
                    </mxGeometry>
                </mxCell>
                <mxCell id="zkfFHV4jXpPFQw0GAbJ--0" value="GAME MANAGER" style="swimlane;fontStyle=2;align=center;verticalAlign=top;childLayout=stackLayout;horizontal=1;startSize=26;horizontalStack=0;resizeParent=1;resizeLast=0;collapsible=1;marginBottom=0;rounded=0;shadow=0;strokeWidth=1;fillColor=#f5f5f5;strokeColor=#666666;fontColor=#333333;" parent="WIyWlLk6GJQsqaUBKTNV-1" vertex="1">
                    <mxGeometry x="240" y="10" width="320" height="196" as="geometry">
                        <mxRectangle x="230" y="140" width="160" height="26" as="alternateBounds"/>
                    </mxGeometry>
                </mxCell>
                <mxCell id="xrH32smRr7bvcVvDlyT8-32" value="적이 반복해서 생성 및 점수 업뎃 game loop" style="rounded=0;whiteSpace=wrap;html=1;" parent="zkfFHV4jXpPFQw0GAbJ--0" vertex="1">
                    <mxGeometry y="26" width="320" height="34" as="geometry"/>
                </mxCell>
                <mxCell id="xrH32smRr7bvcVvDlyT8-33" value="game start" style="rounded=0;whiteSpace=wrap;html=1;" parent="zkfFHV4jXpPFQw0GAbJ--0" vertex="1">
                    <mxGeometry y="60" width="320" height="30" as="geometry"/>
                </mxCell>
                <mxCell id="xrH32smRr7bvcVvDlyT8-34" value="game over" style="rounded=0;whiteSpace=wrap;html=1;" parent="zkfFHV4jXpPFQw0GAbJ--0" vertex="1">
                    <mxGeometry y="90" width="320" height="30" as="geometry"/>
                </mxCell>
                <mxCell id="xrH32smRr7bvcVvDlyT8-35" value="게임오버시 출력 최종점수 및 지금까지 최고점수 보여주기&lt;br&gt;total point" style="rounded=0;whiteSpace=wrap;html=1;" parent="zkfFHV4jXpPFQw0GAbJ--0" vertex="1">
                    <mxGeometry y="120" width="320" height="30" as="geometry"/>
                </mxCell>
                <mxCell id="xrH32smRr7bvcVvDlyT8-52" value="시작 전 최대 총알 갯수 선택&lt;br&gt;bullet type" style="rounded=0;whiteSpace=wrap;html=1;" parent="zkfFHV4jXpPFQw0GAbJ--0" vertex="1">
                    <mxGeometry y="150" width="320" height="46" as="geometry"/>
                </mxCell>
                <mxCell id="zkfFHV4jXpPFQw0GAbJ--6" value="player" style="swimlane;fontStyle=0;align=center;verticalAlign=top;childLayout=stackLayout;horizontal=1;startSize=26;horizontalStack=0;resizeParent=1;resizeLast=0;collapsible=1;marginBottom=0;rounded=0;shadow=0;strokeWidth=1;fillColor=#f5f5f5;strokeColor=#666666;fontColor=#333333;" parent="WIyWlLk6GJQsqaUBKTNV-1" vertex="1">
                    <mxGeometry x="10" y="490" width="160" height="150" as="geometry">
                        <mxRectangle x="130" y="380" width="160" height="26" as="alternateBounds"/>
                    </mxGeometry>
                </mxCell>
                <mxCell id="xrH32smRr7bvcVvDlyT8-40" value="hp" style="rounded=0;whiteSpace=wrap;html=1;" parent="zkfFHV4jXpPFQw0GAbJ--6" vertex="1">
                    <mxGeometry y="26" width="160" height="34" as="geometry"/>
                </mxCell>
                <mxCell id="xrH32smRr7bvcVvDlyT8-39" value="적에게 부딛힘 = 적 삭제됨hit" style="rounded=0;whiteSpace=wrap;html=1;" parent="zkfFHV4jXpPFQw0GAbJ--6" vertex="1">
                    <mxGeometry y="60" width="160" height="30" as="geometry"/>
                </mxCell>
                <mxCell id="xrH32smRr7bvcVvDlyT8-41" value="HP Down" style="rounded=0;whiteSpace=wrap;html=1;" parent="zkfFHV4jXpPFQw0GAbJ--6" vertex="1">
                    <mxGeometry y="90" width="160" height="30" as="geometry"/>
                </mxCell>
                <mxCell id="xrH32smRr7bvcVvDlyT8-55" value="hp =0&amp;nbsp; &amp;nbsp;player death" style="rounded=0;whiteSpace=wrap;html=1;" parent="zkfFHV4jXpPFQw0GAbJ--6" vertex="1">
                    <mxGeometry y="120" width="160" height="30" as="geometry"/>
                </mxCell>
                <mxCell id="xrH32smRr7bvcVvDlyT8-17" value="Enemy" style="swimlane;fontStyle=0;align=center;verticalAlign=top;childLayout=stackLayout;horizontal=1;startSize=26;horizontalStack=0;resizeParent=1;resizeLast=0;collapsible=1;marginBottom=0;rounded=0;shadow=0;strokeWidth=1;fillColor=#f5f5f5;strokeColor=#666666;fontColor=#333333;" parent="WIyWlLk6GJQsqaUBKTNV-1" vertex="1">
                    <mxGeometry x="240" y="490" width="320" height="232" as="geometry">
                        <mxRectangle x="130" y="380" width="160" height="26" as="alternateBounds"/>
                    </mxGeometry>
                </mxCell>
                <mxCell id="xrH32smRr7bvcVvDlyT8-42" value="적이 생성될 때 hp =&amp;nbsp; enemy Max hp ramdom" style="rounded=0;whiteSpace=wrap;html=1;" parent="xrH32smRr7bvcVvDlyT8-17" vertex="1">
                    <mxGeometry y="26" width="320" height="34" as="geometry"/>
                </mxCell>
                <mxCell id="xrH32smRr7bvcVvDlyT8-47" value="벽 랜덤한 곳에서 나타나기&amp;nbsp;position random x,y&amp;nbsp;" style="rounded=0;whiteSpace=wrap;html=1;" parent="xrH32smRr7bvcVvDlyT8-17" vertex="1">
                    <mxGeometry y="60" width="320" height="34" as="geometry"/>
                </mxCell>
                <mxCell id="xrH32smRr7bvcVvDlyT8-46" value="hp에 대한크기 hp가 적어질수록 작아짐&amp;nbsp; size" style="rounded=0;whiteSpace=wrap;html=1;" parent="xrH32smRr7bvcVvDlyT8-17" vertex="1">
                    <mxGeometry y="94" width="320" height="36" as="geometry"/>
                </mxCell>
                <mxCell id="xrH32smRr7bvcVvDlyT8-45" value="죽으면 점수 score" style="rounded=0;whiteSpace=wrap;html=1;" parent="xrH32smRr7bvcVvDlyT8-17" vertex="1">
                    <mxGeometry y="130" width="320" height="34" as="geometry"/>
                </mxCell>
                <mxCell id="xrH32smRr7bvcVvDlyT8-44" value="적 소멸 hp= 0&amp;nbsp; delete" style="rounded=0;whiteSpace=wrap;html=1;" parent="xrH32smRr7bvcVvDlyT8-17" vertex="1">
                    <mxGeometry y="164" width="320" height="34" as="geometry"/>
                </mxCell>
                <mxCell id="xrH32smRr7bvcVvDlyT8-43" value="적 스피드 enemy speed" style="rounded=0;whiteSpace=wrap;html=1;" parent="xrH32smRr7bvcVvDlyT8-17" vertex="1">
                    <mxGeometry y="198" width="320" height="34" as="geometry"/>
                </mxCell>
                <mxCell id="xrH32smRr7bvcVvDlyT8-25" value="bullet" style="swimlane;fontStyle=0;align=center;verticalAlign=top;childLayout=stackLayout;horizontal=1;startSize=26;horizontalStack=0;resizeParent=1;resizeLast=0;collapsible=1;marginBottom=0;rounded=0;shadow=0;strokeWidth=1;fillColor=#f5f5f5;strokeColor=#666666;fontColor=#333333;" parent="WIyWlLk6GJQsqaUBKTNV-1" vertex="1">
                    <mxGeometry x="610" y="490" width="180" height="216" as="geometry">
                        <mxRectangle x="130" y="380" width="160" height="26" as="alternateBounds"/>
                    </mxGeometry>
                </mxCell>
                <mxCell id="xrH32smRr7bvcVvDlyT8-48" value="클릭 시 총알 발사 shot" style="rounded=0;whiteSpace=wrap;html=1;" parent="xrH32smRr7bvcVvDlyT8-25" vertex="1">
                    <mxGeometry y="26" width="180" height="34" as="geometry"/>
                </mxCell>
                <mxCell id="xrH32smRr7bvcVvDlyT8-53" value="총알 스피드 speed" style="rounded=0;whiteSpace=wrap;html=1;" parent="xrH32smRr7bvcVvDlyT8-25" vertex="1">
                    <mxGeometry y="60" width="180" height="34" as="geometry"/>
                </mxCell>
                <mxCell id="xrH32smRr7bvcVvDlyT8-51" value="총알 캔버스(화면) 나가면 사라지기 out" style="rounded=0;whiteSpace=wrap;html=1;" parent="xrH32smRr7bvcVvDlyT8-25" vertex="1">
                    <mxGeometry y="94" width="180" height="46" as="geometry"/>
                </mxCell>
                <mxCell id="xrH32smRr7bvcVvDlyT8-50" value="총알이 적 타격 시 삭제 attack" style="rounded=0;whiteSpace=wrap;html=1;" parent="xrH32smRr7bvcVvDlyT8-25" vertex="1">
                    <mxGeometry y="140" width="180" height="34" as="geometry"/>
                </mxCell>
                <mxCell id="xrH32smRr7bvcVvDlyT8-56" value="현재 총알 갯수 bullet count" style="rounded=0;whiteSpace=wrap;html=1;" parent="xrH32smRr7bvcVvDlyT8-25" vertex="1">
                    <mxGeometry y="174" width="180" height="42" as="geometry"/>
                </mxCell>
            </root>
        </mxGraphModel>
    </diagram>
</mxfile>